<mxfile host="app.diagrams.net" agent="Mozilla/5.0 (Windows NT 10.0; Win64; x64) AppleWebKit/537.36 (KHTML, like Gecko) Chrome/134.0.0.0 Safari/537.36 OPR/119.0.0.0" version="27.1.3">
  <diagram name="Page-1" id="0XbY5eRMJvj2sxnfgMNo">
    <mxGraphModel dx="1385" dy="756" grid="1" gridSize="10" guides="1" tooltips="1" connect="1" arrows="1" fold="1" page="1" pageScale="1" pageWidth="850" pageHeight="1100" math="0" shadow="0">
      <root>
        <mxCell id="0" />
        <mxCell id="1" parent="0" />
        <mxCell id="is6l62XTviH25bTY5-xc-1" value="Start" style="ellipse;whiteSpace=wrap;html=1;" vertex="1" parent="1">
          <mxGeometry x="365" y="30" width="120" height="80" as="geometry" />
        </mxCell>
        <mxCell id="is6l62XTviH25bTY5-xc-2" value="" style="html=1;shadow=0;dashed=0;align=center;verticalAlign=middle;shape=mxgraph.arrows2.arrow;dy=0.6;dx=40;direction=south;notch=0;" vertex="1" parent="1">
          <mxGeometry x="405" y="110" width="40" height="100" as="geometry" />
        </mxCell>
        <mxCell id="is6l62XTviH25bTY5-xc-3" value="Process" style="rounded=0;whiteSpace=wrap;html=1;" vertex="1" parent="1">
          <mxGeometry x="365" y="210" width="120" height="60" as="geometry" />
        </mxCell>
        <mxCell id="is6l62XTviH25bTY5-xc-4" value="" style="html=1;shadow=0;dashed=0;align=center;verticalAlign=middle;shape=mxgraph.arrows2.arrow;dy=0.6;dx=40;direction=south;notch=0;" vertex="1" parent="1">
          <mxGeometry x="405" y="270" width="40" height="100" as="geometry" />
        </mxCell>
        <mxCell id="is6l62XTviH25bTY5-xc-5" value="Decision" style="rhombus;whiteSpace=wrap;html=1;" vertex="1" parent="1">
          <mxGeometry x="353" y="370" width="145" height="140" as="geometry" />
        </mxCell>
        <mxCell id="is6l62XTviH25bTY5-xc-6" value="" style="html=1;shadow=0;dashed=0;align=center;verticalAlign=middle;shape=mxgraph.arrows2.arrow;dy=0.6;dx=40;direction=west;notch=0;" vertex="1" parent="1">
          <mxGeometry x="253" y="420" width="100" height="40" as="geometry" />
        </mxCell>
        <mxCell id="is6l62XTviH25bTY5-xc-7" value="" style="html=1;shadow=0;dashed=0;align=center;verticalAlign=middle;shape=mxgraph.arrows2.arrow;dy=0.6;dx=40;direction=east;notch=0;" vertex="1" parent="1">
          <mxGeometry x="498" y="420" width="100" height="40" as="geometry" />
        </mxCell>
        <mxCell id="is6l62XTviH25bTY5-xc-8" value="Odd" style="shape=parallelogram;perimeter=parallelogramPerimeter;whiteSpace=wrap;html=1;fixedSize=1;" vertex="1" parent="1">
          <mxGeometry x="140" y="410" width="120" height="60" as="geometry" />
        </mxCell>
        <mxCell id="is6l62XTviH25bTY5-xc-9" value="Even" style="shape=parallelogram;perimeter=parallelogramPerimeter;whiteSpace=wrap;html=1;fixedSize=1;" vertex="1" parent="1">
          <mxGeometry x="590" y="410" width="120" height="60" as="geometry" />
        </mxCell>
        <mxCell id="is6l62XTviH25bTY5-xc-10" value="" style="html=1;shadow=0;dashed=0;align=center;verticalAlign=middle;shape=mxgraph.arrows2.arrow;dy=0.6;dx=40;direction=south;notch=0;" vertex="1" parent="1">
          <mxGeometry x="180" y="470" width="40" height="100" as="geometry" />
        </mxCell>
        <mxCell id="is6l62XTviH25bTY5-xc-11" value="" style="html=1;shadow=0;dashed=0;align=center;verticalAlign=middle;shape=mxgraph.arrows2.arrow;dy=0.6;dx=40;direction=south;notch=0;" vertex="1" parent="1">
          <mxGeometry x="630" y="470" width="40" height="100" as="geometry" />
        </mxCell>
        <mxCell id="is6l62XTviH25bTY5-xc-12" value="Process" style="rounded=0;whiteSpace=wrap;html=1;" vertex="1" parent="1">
          <mxGeometry x="140" y="570" width="120" height="60" as="geometry" />
        </mxCell>
        <mxCell id="is6l62XTviH25bTY5-xc-13" value="Process" style="rounded=0;whiteSpace=wrap;html=1;" vertex="1" parent="1">
          <mxGeometry x="590" y="570" width="120" height="60" as="geometry" />
        </mxCell>
        <mxCell id="is6l62XTviH25bTY5-xc-14" value="" style="html=1;shadow=0;dashed=0;align=center;verticalAlign=middle;shape=mxgraph.arrows2.arrow;dy=0.6;dx=40;direction=south;notch=0;" vertex="1" parent="1">
          <mxGeometry x="180" y="630" width="40" height="100" as="geometry" />
        </mxCell>
        <mxCell id="is6l62XTviH25bTY5-xc-15" value="" style="html=1;shadow=0;dashed=0;align=center;verticalAlign=middle;shape=mxgraph.arrows2.arrow;dy=0.6;dx=40;direction=south;notch=0;" vertex="1" parent="1">
          <mxGeometry x="630" y="630" width="40" height="100" as="geometry" />
        </mxCell>
        <mxCell id="is6l62XTviH25bTY5-xc-16" value="Output" style="shape=parallelogram;perimeter=parallelogramPerimeter;whiteSpace=wrap;html=1;fixedSize=1;" vertex="1" parent="1">
          <mxGeometry x="140" y="730" width="120" height="60" as="geometry" />
        </mxCell>
        <mxCell id="is6l62XTviH25bTY5-xc-17" value="" style="html=1;shadow=0;dashed=0;align=center;verticalAlign=middle;shape=mxgraph.arrows2.arrow;dy=0.6;dx=40;direction=south;notch=0;" vertex="1" parent="1">
          <mxGeometry x="180" y="790" width="40" height="100" as="geometry" />
        </mxCell>
        <mxCell id="is6l62XTviH25bTY5-xc-18" value="Output" style="shape=parallelogram;perimeter=parallelogramPerimeter;whiteSpace=wrap;html=1;fixedSize=1;" vertex="1" parent="1">
          <mxGeometry x="590" y="730" width="120" height="60" as="geometry" />
        </mxCell>
        <mxCell id="is6l62XTviH25bTY5-xc-19" value="" style="html=1;shadow=0;dashed=0;align=center;verticalAlign=middle;shape=mxgraph.arrows2.arrow;dy=0.6;dx=40;direction=south;notch=0;" vertex="1" parent="1">
          <mxGeometry x="630" y="790" width="40" height="100" as="geometry" />
        </mxCell>
        <mxCell id="is6l62XTviH25bTY5-xc-20" value="End" style="ellipse;whiteSpace=wrap;html=1;" vertex="1" parent="1">
          <mxGeometry x="140" y="890" width="120" height="80" as="geometry" />
        </mxCell>
        <mxCell id="is6l62XTviH25bTY5-xc-21" value="End" style="ellipse;whiteSpace=wrap;html=1;" vertex="1" parent="1">
          <mxGeometry x="590" y="890" width="120" height="80" as="geometry" />
        </mxCell>
      </root>
    </mxGraphModel>
  </diagram>
</mxfile>
